<svg id="ecnaUFjiHOD1" xmlns="http://www.w3.org/2000/svg" xmlns:xlink="http://www.w3.org/1999/xlink" viewBox="0 0 64 64" shape-rendering="geometricPrecision" text-rendering="geometricPrecision" project-id="613500d7fad64074a8ad6b5b0ff7fe65" export-id="43c6c2d8aea5453a83e53bbb3a5387d7" cached="false"><path d="M32,0C18.746,0,8,10.746,8,24c0,5.219,1.711,10.008,4.555,13.93.051.094.059.199.117.289l16,24C29.414,63.332,30.664,64,32,64s2.586-.668,3.328-1.781l16-24c.059-.09.066-.195.117-.289C54.289,34.008,56,29.219,56,24C56,10.746,45.254,0,32,0Zm0,32c-4.418,0-8-3.582-8-8s3.582-8,8-8s8,3.582,8,8-3.582,8-8,8Z" fill="#00d1ff"/></svg>
