<svg id="esWcDjRwKIN1" xmlns="http://www.w3.org/2000/svg" xmlns:xlink="http://www.w3.org/1999/xlink" viewBox="0 0 64 64" shape-rendering="geometricPrecision" text-rendering="geometricPrecision" project-id="613500d7fad64074a8ad6b5b0ff7fe65" export-id="8c62675a01c949f1908dc9bc11c77b7a" cached="false"><path d="M3,5.5C3,14.0604,9.93959,21,18.5,21c.3862,0,.7691-.0141,1.1483-.0419.4351-.0319.6526-.0478.8507-.1618.164-.0944.3195-.2618.4017-.4323C21,20.1582,21,19.9181,21,19.438v-2.8173c0-.4038,0-.6057-.0665-.7787-.0586-.1529-.154-.289-.2776-.3964-.1399-.1216-.3297-.1906-.7091-.3286L16.74,13.9509c-.4415-.1605-.6623-.2408-.8717-.2272-.1847.012-.3624.0751-.5134.1821-.1712.1213-.292.3227-.5337.7256L14,16c-2.6499-1.2001-4.7981-3.3511-6-6l1.36863-.82118c.40282-.24169.60423-.36254.72557-.53376.107-.15098.1701-.32869.1821-.51336.0136-.20943-.0667-.43017-.2272-.87165L8.88299,4.05321c-.13799-.37945-.20698-.56918-.32857-.70911-.10741-.12361-.24353-.21895-.3964-.27765C7.98496,3,7.78308,3,7.37932,3h-2.81731c-.48013,0-.7202,0-.92603.09925-.17048.08221-.33784.23776-.43228.40178-.11402.19804-.12995.41559-.16181.8507C3.01413,4.73086,3,5.11378,3,5.5Z" transform="matrix(3.078487 0 0 3.078487 -4.941844 -4.941844)" fill="none" stroke="#00d1ff" stroke-width="2" stroke-linecap="round" stroke-linejoin="round"/></svg>
