<svg id="e643huCB8AV1" xmlns="http://www.w3.org/2000/svg" xmlns:xlink="http://www.w3.org/1999/xlink" viewBox="0 0 64 64" shape-rendering="geometricPrecision" text-rendering="geometricPrecision" project-id="613500d7fad64074a8ad6b5b0ff7fe65" export-id="9ae054f6f9aa41529188a414e1d6f1b9" cached="false"><path d="M26.016247,1.927741c-.857849.013417-1.543038.718554-1.531849,1.576445c0,2.074908-.713242,2.417349-2.010044,3.454803s-3.177167,2.769921-3.177167,5.882284c-.007936.561215.286918,1.083229.771659,1.366153s1.084267.282923,1.569009,0s.779595-.804938.771659-1.366153c0-2.074908.711215-2.415323,2.008018-3.452777s3.179193-2.771948,3.179193-5.88431c.005484-.420463-.159402-.82525-.457117-1.122205s-.70292-.460803-1.123361-.45424Zm6.224653,2.074908c-.857849.013417-1.543038.718554-1.531849,1.576445c0,.778091-.152542,1.103614-.364725,1.40421s-.569377.5937-1.088099.982745-1.198969.874033-1.764867,1.675731-.932078,1.902675-.932078,3.199493c-.007936.561215.286918,1.083229.771659,1.366153s1.084267.282923,1.569009,0s.779595-.804938.771659-1.366153c0-.778091.150516-1.103615.362699-1.404211s.569378-.591673,1.088099-.980718s1.19897-.87606,1.764867-1.677758.934104-1.902674.934104-3.199492c.005484-.420463-.159402-.82525-.457117-1.122205s-.70292-.460803-1.123361-.45424ZM14.74622,16.472363c-1.008394,0-1.977786.424415-2.662498,1.163083-.684712.739705-1.033163,1.740314-.956392,2.745607l1.458903,18.9923c.310195,4.028435,3.718728,7.185182,7.758528,7.185182h8.184041c4.040837,0,7.449369-3.156747,7.758527-7.185182l.006079-.076998h2.196459c4.278931,0,7.780817-3.501926,7.780817-7.780906v-5.187271c0-1.986678-1.644393-3.63109-3.631048-3.63109h-5.071715l.17831-2.314009c.076771-1.004256-.270691-2.004864-.954366-2.745607-.685749-.739705-1.65613-1.165109-2.664524-1.165109h-19.381123ZM37.328824,25.80945h5.310813c.306092,0,.518721.21263.518721.518727v5.187271c0,2.597266-2.071254,4.668544-4.66849,4.668544h-1.957362l.796318-10.374542Z" transform="matrix(1.393875 0 0 1.393875 -7.995551 -1.791777)" fill="#00d1ff"/></svg>
